    <svg width="183" height="40" viewBox="0 0 183 40" fill="none" xmlns="http://www.w3.org/2000/svg">
<path fill-rule="evenodd" clip-rule="evenodd" d="M9.08806 0H0L12.9645 29.3916C13.0636 29.6162 13.3837 29.614 13.4797 29.3884L17.7915 19.2674L9.08806 0Z" fill="#131414"/>
<path fill-rule="evenodd" clip-rule="evenodd" d="M36.7705 0C36.7705 0 22.8412 31.8312 20.9755 34.7666C18.807 38.1792 17.3698 39.4818 14.7104 39.8992C14.6858 39.903 14.6675 39.9242 14.6675 39.9492C14.6675 39.9772 14.6904 40 14.7185 40H23.0414C26.6469 40 29.247 36.9958 30.688 34.3428C32.3255 31.3274 46.0187 0 46.0187 0H36.7705Z" fill="#131414"/>
<path fill-rule="evenodd" clip-rule="evenodd" d="M73.1705 25.5287C73.1513 25.5707 73.0914 25.5707 73.0721 25.5287L66.1624 10.4413H62.2803C62.2803 10.4413 69.4017 26.4507 70.1131 27.6469C70.8082 28.8161 71.6494 29.7799 73.1214 29.7799C74.5934 29.7799 75.4347 28.8161 76.1298 27.6469C76.8412 26.4507 83.9625 10.4413 83.9625 10.4413H80.0804L73.1705 25.5287Z" fill="#131414"/>
<path fill-rule="evenodd" clip-rule="evenodd" d="M94.2435 26.84C90.4886 26.84 88.0297 24.3998 88.0297 19.9998C88.0297 15.5998 90.4886 13.16 94.2435 13.16C97.9848 13.16 100.457 15.5998 100.457 19.9998C100.457 24.3998 97.9848 26.84 94.2435 26.84ZM94.2435 10C88.364 10 84.5823 13.8 84.5823 19.9998C84.5823 26.2 88.364 30 94.2435 30C100.109 30 103.905 26.2 103.905 19.9998C103.905 13.8 100.109 10 94.2435 10Z" fill="#131414"/>
<path fill-rule="evenodd" clip-rule="evenodd" d="M123.767 10.44V29.56H119.788L110.512 15.5814V29.56H107.118V10.44H111.11L120.387 24.5118V10.44H123.767Z" fill="#131414"/>
<path fill-rule="evenodd" clip-rule="evenodd" d="M132.864 21.72L136.206 13.911C136.225 13.8672 136.287 13.8672 136.306 13.911L139.649 21.72H132.864ZM136.256 10.2214C134.858 10.2214 134.004 11.2796 133.441 12.3378C132.864 13.4222 125.961 29.56 125.961 29.56H129.508L131.49 24.9302H141.023L143.004 29.56H146.551C146.551 29.56 139.649 13.4222 139.071 12.3378C138.508 11.2796 137.654 10.2214 136.256 10.2214Z" fill="#131414"/>
<path fill-rule="evenodd" clip-rule="evenodd" d="M156.144 22.1867H162.216C162.187 25.1575 159.408 26.8401 156.462 26.8401C152.767 26.8401 150.348 24.3999 150.348 19.9999C150.348 15.2495 152.588 13.1321 156.669 13.1321C159.224 13.1321 161.348 14.1745 161.796 16.5771H165.316C164.699 12.3707 160.816 9.99991 156.462 9.99991C150.677 9.99991 146.956 13.7999 146.956 19.9999C146.956 26.1999 150.677 29.9257 156.462 29.9257C158.901 29.9257 161.361 28.6207 162.227 27.2423L162.216 29.5599H165.463V23.6607V19.2607H156.144V22.1867Z" fill="#131414"/>
<path fill-rule="evenodd" clip-rule="evenodd" d="M182.918 13.6398V10.44H169.141V29.56H182.918V26.36H172.535V21.3334H182.108V18.1332H172.535V13.6398H182.918Z" fill="#131414"/>
</svg>
